<?xml version="1.0" encoding="UTF-8" standalone="no"?>
<svg
   viewBox="0 0 604.04704 606.58949"
   width="604.04706"
   height="606.58948"
   version="1.1"
   id="svg8"
   sodipodi:docname="logo-black.svg"
   inkscape:version="1.4.3 (0d15f75, 2025-12-25)"
   xmlns:inkscape="http://www.inkscape.org/namespaces/inkscape"
   xmlns:sodipodi="http://sodipodi.sourceforge.net/DTD/sodipodi-0.dtd"
   xmlns="http://www.w3.org/2000/svg"
   xmlns:svg="http://www.w3.org/2000/svg">
  <sodipodi:namedview
     id="namedview8"
     pagecolor="#ffffff"
     bordercolor="#000000"
     borderopacity="0.25"
     inkscape:showpageshadow="2"
     inkscape:pageopacity="0.0"
     inkscape:pagecheckerboard="0"
     inkscape:deskcolor="#d1d1d1"
     inkscape:zoom="0.28445991"
     inkscape:cx="-397.24403"
     inkscape:cy="-1682.1351"
     inkscape:window-width="1569"
     inkscape:window-height="1732"
     inkscape:window-x="0"
     inkscape:window-y="576"
     inkscape:window-maximized="0"
     inkscape:current-layer="g8" />
  <desc
     id="desc1">chief_logo.dxf - scale = 1.000000, origin = (0.000000, 0.000000), method = manual</desc>
  <defs
     id="defs4">
    <marker
       id="DistanceX"
       orient="auto"
       refX="0"
       refY="0"
       style="overflow:visible">
      <path
         d="M 3,-3 -3,3 M 0,-5 V 5"
         style="stroke:#000000;stroke-width:0.5"
         id="path1" />
    </marker>
    <pattern
       id="Hatch"
       patternUnits="userSpaceOnUse"
       width="8"
       height="8"
       x="0"
       y="0">
      <path
         d="M8 4 l-4,4"
         stroke="#000000"
         stroke-width="0.25"
         linecap="square"
         id="path2" />
      <path
         d="M6 2 l-4,4"
         stroke="#000000"
         stroke-width="0.25"
         linecap="square"
         id="path3" />
      <path
         d="M4 0 l-4,4"
         stroke="#000000"
         stroke-width="0.25"
         linecap="square"
         id="path4" />
    </pattern>
  </defs>
  <g
     inkscape:groupmode="layer"
     inkscape:label="0"
     id="g8"
     transform="translate(-69.12012,-262.05177)">
    <g
       id="g9">
      <path
         d="m 415.71193,274.60096 6.85892,1.24396 20.36217,4.96083 25.93959,8.53926 24.86049,10.97249 18.15223,9.8558 5.81982,3.65268 5.06659,3.16175 14.72694,10.26057 17.97364,14.54919 16.8058,16.25388 12.38839,13.76362 3.90597,4.7745 4.15834,5.091 11.69804,15.91927 12.27438,19.71522 8.42899,17.93189 3.70843,11.68077 0.59847,3.98904 0.24845,1.6598 0.18096,5.08147 19.941,-61.37157 -20.15004,62.65695 -2.34777,19.09244 -0.55534,1.54277 -0.68031,1.90365 -2.57958,5.52404 -4.23189,6.88442 -5.10761,6.26435 -5.89089,5.56228 -6.57503,4.77731 -7.16974,3.91593 -7.66195,2.9756 -6.02719,1.60033 -2.03818,0.35213 -1.73102,0.27893 -5.29026,0.25276 -8.14923,-0.29594 -8.0839,-1.02919 -5.16726,-1.1093 -1.65802,-0.55541 -1.75309,-0.60709 -5.12112,-2.22021 -7.27179,-3.79673 -7.34866,-4.59027 -5.38335,-3.84252 -1.72032,-1.36488 -1.25736,-0.99575 -3.62039,-3.15949 -5.17034,-5.13149 -6.37894,-7.07714 -6.39563,-7.47559 -2.10615,-2.51074 -1.93541,-2.31348 -5.8664,-6.87449 -6.91875,-7.79575 -6.27089,-6.62681 -5.86864,-5.67432 -5.70061,-4.94285 -5.77667,-4.42806 -6.08841,-4.13457 -4.96507,-3.07529 -1.67571,-0.98065 -3.46632,-2.01673 -10.72611,-5.48161 -13.65971,-5.44618 -14.39588,-3.80397 -12.2777,-2.08669 -4.11433,-0.47672 -2.96145,-0.35917 -8.90787,-0.81267 -10.1905,-0.41948 -9.40201,0.30338 -7.13387,0.69365 -2.36156,0.33052 -4.38015,0.6093 -12.99068,2.84802 -16.72298,5.39876 -15.94364,7.24813 -15.04477,9.01053 -14.00877,10.69453 -12.85489,12.28391 -11.56279,13.7883 -7.82895,11.28306 -2.32391,3.9287 -3.1373,5.29058 -7.59025,16.96477 -7.2301,24.23459 -3.51467,25.12963 -0.20574,18.76764 0.62109,6.19006 0.53749,5.27713 3.08044,15.69563 6.371,20.14637 8.93935,19.05779 11.31868,17.70614 13.49761,16.10374 15.49393,14.23399 17.29844,12.11394 14.03627,7.63413 4.87548,2.0953 2.08035,0.8876 6.31026,2.50841 7.61113,2.61221 7.81456,2.12491 6.75213,1.4865 2.26346,0.43823 5.09096,0.9575 15.57339,1.32917 21.27868,-0.65884 21.0845,-3.53191 15.21146,-4.38554 4.88014,-1.94289 4.51405,-1.7946 13.10615,-6.48067 16.48908,-10.45668 15.70221,-12.89286 11.6375,-11.50784 3.62179,-4.06152 2.66687,-2.99843 8.53472,-8.52602 10.92893,-9.00082 10.9603,-6.69977 8.3888,-3.70268 2.89884,-0.91571 1.64879,-0.52299 5.05682,-1.26053 6.33093,-0.86232 6.7498,-0.008 5.97693,0.52994 1.98189,0.25682 2.84558,0.34903 8.42835,1.96176 9.97491,4.0162 8.96276,5.84978 6.3375,5.71285 1.89576,2.10517 2.41213,2.68747 6.2001,8.99746 5.42709,12.45049 2.31736,13.50789 -0.20508,11.19093 -0.51952,3.6692 -0.18834,1.38971 -0.75292,4.14438 -1.30131,5.18833 -1.75409,5.0251 -2.30655,5.05551 -2.95716,5.27165 -3.70906,5.67877 -4.55765,6.27776 -4.1084,5.31473 -1.39411,1.74928 -2.24147,2.79027 -6.96696,8.17027 -9.37572,10.04697 -10.24274,9.84051 -8.81443,7.81063 -2.99809,2.53258 -3.13714,2.61549 -9.62208,7.59685 -12.2943,8.88118 -12.62028,8.08285 -10.25371,5.93707 -3.47296,1.87817 -6.79415,3.65737 -21.16759,9.52091 -29.01059,9.98789 -30.24834,6.85569 -23.72605,3.2361 -7.94429,0.56102 -1.87873,0.12922 -5.64299,0.26528 -7.33072,-0.0325 -9.29482,-0.53294 -10.04587,-0.81215 -3.34742,-0.29286 -2.25053,-0.1969 -6.7466,-0.64034 -7.77089,-0.82998 -6.85155,-0.88968 -6.23742,-0.99776 -5.92588,-1.15732 -5.92028,-1.37369 -6.22495,-1.64555 -5.12631,-1.46101 -1.70001,-0.50071 -8.27133,-2.45428 -24.1872,-9.44967 -31.15669,-15.99047 -29.42388,-19.84761 -20.81227,-17.21977 -6.4489,-6.24137 -1.38445,-1.33548 -4.02982,-4.12894 -5.77217,-6.27174 -5.96565,-6.88017 -5.98988,-7.27244 -5.84328,-7.45513 -5.53346,-7.43102 -5.05517,-7.19701 -3.34461,-5.04383 -1.06495,-1.70787 -4.85508,-7.77585 -12.63358,-24.5252 L 91.228787,656.95335 82.304218,622.04654 77.698,586.3789 l -0.265706,-36.05838 4.107541,-36.08163 8.500934,-35.74595 9.183423,-26.50161 3.739608,-8.53519 2.68611,-6.11056 9.26638,-17.79661 14.457,-23.24602 16.5812,-21.99611 13.50829,-15.34238 4.81621,-4.80209 1.03069,-1.02744 3.17946,-2.99262 5.1165,-4.60048 5.74488,-4.95336 6.09439,-5.07591 6.1753,-4.98076 5.97496,-4.64882 5.50254,-4.09199 3.54783,-2.51084 1.20915,-0.79831 4.42711,-2.94017 13.71898,-8.17538 18.81758,-9.7095 19.39992,-8.27404 19.88021,-6.81781 20.27461,-5.33708 20.57436,-3.82693 20.77792,-2.29083 15.66563,-0.74907 5.22198,0.0148 2.86461,0.0171 8.59591,0.3934 13.61204,0.9824 13.35319,1.33839 8.02439,1.01731 2.65513,0.45916 z"
         style="fill:none;stroke:#000000;stroke-width:16.6174"
         id="path6"
         sodipodi:nodetypes="cccccccccccccccccccccccccccccccccccccccccccccccccccccccccccccccccccccccccccccccccccccccccccccccccccccccccccccccccccccccccccccccccccccccccccccccccccccccccccccccccccccccccccccccccccccccccccccccccccccccccccccccccccccccccccccccccccccccccccccccccccccc" />
      <path
         sodipodi:type="star"
         style="fill:#000000"
         id="path8"
         inkscape:flatsided="false"
         sodipodi:sides="3"
         sodipodi:cx="609.29596"
         sodipodi:cy="328.4212"
         sodipodi:r1="28.730364"
         sodipodi:r2="13.619866"
         sodipodi:arg1="0.197078"
         sodipodi:arg2="1.2442756"
         inkscape:rounded="0"
         inkscape:randomized="0"
         d="m 637.47019,334.04674 -23.80566,7.27471 -23.32755,8.68658 5.60275,-24.25366 4.14098,-24.54553 18.20291,16.97895 z"
         inkscape:transform-center-x="2.5481058"
         inkscape:transform-center-y="-2.9086342"
         transform="rotate(-85,662.5108,332.99655)" />
    </g>
  </g>
</svg>
